<svg width="24" height="24" viewBox="0 0 24 24" fill="none" xmlns="http://www.w3.org/2000/svg">
<path d="M24 4.557C23.1014 4.95527 22.1481 5.21651 21.172 5.332C22.2006 4.71718 22.9702 3.74887 23.337 2.608C22.3704 3.18158 21.3128 3.58573 20.21 3.803C19.7494 3.31139 19.1928 2.91969 18.5745 2.65219C17.9563 2.3847 17.2896 2.24712 16.616 2.248C13.437 2.248 11.101 5.214 11.819 8.293C9.86138 8.19501 7.94625 7.6864 6.19796 6.80019C4.44967 5.91399 2.9073 4.67 1.671 3.149C1.04148 4.23304 0.848566 5.51618 1.13149 6.7374C1.41441 7.95863 2.15192 9.02621 3.194 9.723C2.41251 9.69833 1.64826 9.48712 0.965 9.107C0.911 11.388 2.546 13.522 4.914 13.997C4.18873 14.194 3.42806 14.2227 2.69 14.081C3.00451 15.0594 3.61703 15.915 4.44184 16.528C5.26665 17.1411 6.26249 17.4809 7.29 17.5C5.2262 19.1189 2.6043 19.8526 0 19.54C2.25151 20.9866 4.87183 21.7545 7.548 21.752C16.69 21.752 21.855 14.031 21.543 7.106C22.5067 6.40882 23.3387 5.5457 24 4.557Z" fill="#B63B1A"/>
</svg>
