<svg width="60" height="60" viewBox="0 0 60 60" fill="none" xmlns="http://www.w3.org/2000/svg">
<circle cx="30" cy="30" r="30" fill="#F9FAF9"/>
<path d="M18.44 27.44L18.8 28.6H37.28V27.44H18.44ZM11.68 36.76L12.04 37.88H47.4C48 37.88 48.4 37.68 48.52 37.28C46.88 35.76 44.16 33.64 44.16 33.64L41.72 36.76H11.68ZM28.08 32.52V45.2C28.08 45.8 27.84 46 27.08 46C26.08 46 20.36 45.64 20.36 45.64V46.2C22.84 46.56 24 47 24.8 47.64C25.6 48.28 25.88 49.2 26.04 50.44C31.36 49.96 32.08 48.28 32.08 45.4V34.04C32.96 33.92 33.36 33.6 33.44 33.04L28.08 32.52ZM16.36 21.92V23.08H45.04V21.92H16.36ZM15.6 19.04C15.96 21.96 14.56 24.56 12.96 25.56C11.88 26.12 11.2 27.12 11.64 28.32C12.16 29.52 13.8 29.64 15.04 28.8C16.88 27.6 18.32 24.12 16.24 19L15.6 19.04ZM43 21.92C42.52 23.48 41.4 26.16 40.6 27.76L40.96 28.04C42.96 27 45.76 25.24 47.28 23.92C48.12 23.88 48.56 23.8 48.84 23.44L44.84 19.64L42.56 21.92H43ZM17.88 13.8L17.48 14.04C19 15.8 20.64 18.56 20.96 20.84C24.48 23.56 27.72 16.36 17.88 13.8ZM26.92 13.2L26.52 13.44C27.72 15.24 28.92 18 28.96 20.4C32.36 23.48 36.36 16.48 26.92 13.2ZM38.88 13.28C37.76 16.08 35.88 19.96 34.16 22.56H35.08C37.84 20.64 40.76 17.88 42.56 15.84C43.44 15.96 43.92 15.64 44.12 15.2L38.88 13.28ZM36 27.44C34.76 29.16 32 31.96 30.16 33.56L30.52 33.88C33.4 32.8 37.64 30.88 40 29.4C40.88 29.32 41.32 29.24 41.64 28.92L37.84 25.28L35.52 27.44H36Z" fill="#B63B1A"/>
</svg>
