<svg width="64" height="63" viewBox="0 0 64 63" fill="none" xmlns="http://www.w3.org/2000/svg">
<path d="M62 31.5C62 48.0685 48.5685 61.5 32 61.5C15.4315 61.5 2 48.0685 2 31.5C2 14.9315 15.4315 1.5 32 1.5C48.5685 1.5 62 14.9315 62 31.5Z" fill="#F9FAF9"/>
<path fill-rule="evenodd" clip-rule="evenodd" d="M32 3C16.2599 3 3.5 15.7599 3.5 31.5C3.5 47.2401 16.2599 60 32 60C47.7401 60 60.5 47.2401 60.5 31.5C60.5 15.7599 47.7401 3 32 3ZM0.5 31.5C0.5 14.103 14.603 0 32 0C49.397 0 63.5 14.103 63.5 31.5C63.5 48.897 49.397 63 32 63C14.603 63 0.5 48.897 0.5 31.5Z" fill="#B63B1A"/>
<path d="M20.44 28.94L20.8 30.1H39.28V28.94H20.44ZM13.68 38.26L14.04 39.38H49.4C50 39.38 50.4 39.18 50.52 38.78C48.88 37.26 46.16 35.14 46.16 35.14L43.72 38.26H13.68ZM30.08 34.02V46.7C30.08 47.3 29.84 47.5 29.08 47.5C28.08 47.5 22.36 47.14 22.36 47.14V47.7C24.84 48.06 26 48.5 26.8 49.14C27.6 49.78 27.88 50.7 28.04 51.94C33.36 51.46 34.08 49.78 34.08 46.9V35.54C34.96 35.42 35.36 35.1 35.44 34.54L30.08 34.02ZM18.36 23.42V24.58H47.04V23.42H18.36ZM17.6 20.54C17.96 23.46 16.56 26.06 14.96 27.06C13.88 27.62 13.2 28.62 13.64 29.82C14.16 31.02 15.8 31.14 17.04 30.3C18.88 29.1 20.32 25.62 18.24 20.5L17.6 20.54ZM45 23.42C44.52 24.98 43.4 27.66 42.6 29.26L42.96 29.54C44.96 28.5 47.76 26.74 49.28 25.42C50.12 25.38 50.56 25.3 50.84 24.94L46.84 21.14L44.56 23.42H45ZM19.88 15.3L19.48 15.54C21 17.3 22.64 20.06 22.96 22.34C26.48 25.06 29.72 17.86 19.88 15.3ZM28.92 14.7L28.52 14.94C29.72 16.74 30.92 19.5 30.96 21.9C34.36 24.98 38.36 17.98 28.92 14.7ZM40.88 14.78C39.76 17.58 37.88 21.46 36.16 24.06H37.08C39.84 22.14 42.76 19.38 44.56 17.34C45.44 17.46 45.92 17.14 46.12 16.7L40.88 14.78ZM38 28.94C36.76 30.66 34 33.46 32.16 35.06L32.52 35.38C35.4 34.3 39.64 32.38 42 30.9C42.88 30.82 43.32 30.74 43.64 30.42L39.84 26.78L37.52 28.94H38Z" fill="#B63B1A"/>
</svg>
